<mxfile host="app.diagrams.net" modified="2021-10-15T02:57:17.003Z" agent="5.0 (X11; Linux x86_64) AppleWebKit/537.36 (KHTML, like Gecko) Chrome/93.0.4577.63 Safari/537.36" etag="9qvuc6d7iPTn7aJvL9jN" version="15.3.7" type="github">
  <diagram id="TJQ-aWq89Qt14-ivVz_O" name="Page-1">
    <mxGraphModel dx="1550" dy="832" grid="1" gridSize="10" guides="1" tooltips="1" connect="1" arrows="1" fold="1" page="1" pageScale="1" pageWidth="850" pageHeight="1100" math="0" shadow="0">
      <root>
        <mxCell id="0" />
        <mxCell id="1" parent="0" />
      </root>
    </mxGraphModel>
  </diagram>
</mxfile>
